<svg class="icon-display-default" width="24" height="24" viewBox="0 0 24 24" fill="none" xmlns="http://www.w3.org/2000/svg"><path d="M18 9.5h1a1 1 0 011 1v3a1 1 0 01-1 1h-1v-5z" fill="none"></path><path fill-rule="evenodd" clip-rule="evenodd" d="M18.003 14.12V9.88c1 .005 1.993.953 1.993 2.12 0 1.165-.993 2.114-1.993 2.118zm-1 4.565l-9-4.428v-4.64l9-4.355v13.423zM4.003 14h3v-4h-3v4zm16.993-2c0-1.717-1.493-3.115-2.993-3.12V3h-1v1.148L7.003 9h-4v6h2v3h1v-3h1.234l9.766 4.803V21h1v-5.88c1.5-.005 2.993-1.402 2.993-3.12z" fill="currentColor"></path><path fill="none" d="M4 10h3v4H4z"></path></svg>