<svg  fill="none" xmlns="http://www.w3.org/2000/svg"><path d="M5.53 10.639h1.176v6.817H5.529v-6.817Z" fill="none"></path><path fill-rule="evenodd" clip-rule="evenodd" d="M4.353 9.503h3.53v9.089h-3.53v-9.09Zm2.353 1.136H5.529v6.817h1.177v-6.817Z" fill="currentColor"></path><path fill-rule="evenodd" clip-rule="evenodd" d="M2 17.456h20V22H2v-4.544Zm1.176 1.136v2.272h17.648v-2.272H3.176Z" fill="currentColor"></path><path d="M11.412 10.639h1.177v6.817h-1.177v-6.817Z" fill="none"></path><path fill-rule="evenodd" clip-rule="evenodd" d="M10.235 9.503h3.53v9.089h-3.53v-9.09Zm2.353 1.136h-1.176v6.817h1.176v-6.817Z" fill="currentColor"></path><path d="M17.294 10.639h1.176v6.817h-1.176v-6.817Z" fill="none"></path><path fill-rule="evenodd" clip-rule="evenodd" d="M16.118 9.503h3.53v9.089h-3.53v-9.09Zm2.353 1.136h-1.177v6.817h1.177v-6.817Z" fill="currentColor"></path><path fill-rule="evenodd" clip-rule="evenodd" d="M2 6.507 12 2l10 4.507v4.132H2V6.507Zm10-3.253L3.176 7.23v2.273h17.648V7.23L12 3.254Z" fill="currentColor"></path></svg>