<svg  fill="none" xmlns="http://www.w3.org/2000/svg" >
<title>Help</title>
<circle cx="12" cy="12" r="8" stroke="none" stroke-width="2"></circle><circle cx="12" cy="12" r="9.5" stroke="currentColor"></circle><path d="M9 10.22c0-.969.274-1.746.822-2.333.547-.591 1.3-.887 2.255-.887.885 0 1.592.253 2.122.76.534.501.801 1.144.801 1.928 0 .475-.099.86-.296 1.156-.193.296-.586.73-1.179 1.304-.43.417-.711.77-.841 1.062-.126.286-.19.712-.19 1.277h-1.198c0-.641.077-1.156.23-1.546.152-.394.486-.845 1.003-1.35l.538-.532c.162-.152.292-.311.39-.477.18-.291.27-.594.27-.907 0-.44-.132-.82-.397-1.143-.26-.322-.694-.484-1.3-.484-.75 0-1.268.278-1.555.834-.162.309-.254.755-.276 1.337H9Z" fill="currentColor"></path><circle cx="11.841" cy="16.218" r="0.691" fill="currentColor"></circle></svg>