<svg fill="none" xmlns="http://www.w3.org/2000/svg">
<title>Settings</title>
<circle cx="12" cy="12" r="3.557" fill="none"></circle>
<path fill-rule="evenodd" clip-rule="evenodd" d="M12 15a3 3 0 1 1 0-6 3 3 0 0 1 0 6Zm2-13h-4v2.262a7.95 7.95 0 0 0-2.058.852l-1.599-1.6-2.829 2.829 1.6 1.6A7.95 7.95 0 0 0 4.262 10H2v4h2.262a7.95 7.95 0 0 0 .852 2.058l-1.6 1.599 2.829 2.828 1.6-1.599a7.95 7.95 0 0 0 2.057.852V22h4v-2.262a7.95 7.95 0 0 0 2.058-.852l1.599 1.6 2.828-2.829-1.599-1.6A7.95 7.95 0 0 0 19.738 14H22v-4h-2.262a7.95 7.95 0 0 0-.852-2.058l1.6-1.599-2.829-2.829-1.6 1.6A7.95 7.95 0 0 0 14 4.262V2Zm-2 14c2.206 0 4-1.794 4-4s-1.794-4-4-4-4 1.794-4 4 1.794 4 4 4Zm1-13v2.037l.75.194a6.95 6.95 0 0 1 1.799.744l.668.394.548-.548.892-.892 1.414 1.414-.892.893-.548.548.394.667c.33.56.581 1.165.745 1.798l.193.751H21v2h-2.037l-.194.75a6.95 6.95 0 0 1-.744 1.799l-.394.668.548.548.892.892-1.414 1.414-.892-.892-.549-.548-.667.394a6.95 6.95 0 0 1-1.798.745l-.751.193V21h-2v-2.037l-.75-.194a6.95 6.95 0 0 1-1.799-.744l-.668-.394-.548.548-.892.892-1.414-1.414.892-.892.548-.549-.394-.667a6.95 6.95 0 0 1-.744-1.798L5.037 13H3v-2h2.037l.194-.75a6.95 6.95 0 0 1 .744-1.799l.394-.668-.548-.548-.892-.892 1.414-1.414.893.892.548.548.667-.394a6.95 6.95 0 0 1 1.798-.744L11 5.037V3h2Z" fill="currentColor"></path>
</svg>